# xmcd
#
# Track frame offsets:
#	150
#	10722
#	28652
#	47879
#	59386
#	73990
#	85688
#	99003
#	113997
#	127770
#	144953
#	160362
#	172489
#	184951
#	193805
#	209844
#	220035
#	237926
#	254132
#	267957
#	281665
#	296166
#	310625
#	325010
#
# Disc length: 4515 seconds
#
# Revision: 1
# Processed by: cddbd v1.5.2PL0 Copyright (c) Steve Scherf et al.
# Submitted via: audiograbber 1.83.01
#
DISCID=7211a118
DTITLE=Tom Astor - Together
DYEAR=2013
DGENRE=Country
TTITLE0=Tom Astor and Johnny Cash - I will Rock'n'Roll with you
TTITLE1=Tom Astor and Waylon Jennings - I've always been crazy
TTITLE2=Tom Astor and Jody Miller - Dieser Tag kann dein Tag sein
TTITLE3=Tom Astor and Willie Nelson - Two Stories wide
TTITLE4=Tom Astor and Don Williams - I'm getting good at missing you
TTITLE5=Tom Astor and Emmylou Harris - The last time
TTITLE6=Tom Astor and The Bellamy Brothers - Redneck Riviera
TTITLE7=Tom Astor and Pam Gadd  - Send a message to my heart
TTITLE8=Tom Astor and Moe Bandy - Till I'm too old to die young
TTITLE9=Tom Astor and Lynn Anderson - Under the boardwalk
TTITLE10=Tom Astor and David Allan Coe - Then I found you
TTITLE11=Tom Astor and Bobby Bare - 500 miles away from home
TTITLE12=Tom Astor and Billie Jo Spears - What I've got in mind
TTITLE13=Tom Astor and Buck Owens - Sam's Place
TTITLE14=Tom Astor and The Mccarters - Letter from home
TTITLE15=Tom Astor and Boxcar Willie - Big freight train carry me home
TTITLE16=Tom Astor and Joe Diffie - It is cold in here
TTITLE17=Tom Astor and Wild Rose - Till a tear besomes a rose
TTITLE18=Tom Astor and Tommy Overstreet - Heaven is my woman's love
TTITLE19=Tom Astor and Ed Bruce - You just can't see him from the road
TTITLE20=Tom Astor and Dick Curless - A tombstone every mile
TTITLE21=Tom Astor and John Carter Cash - Ring of fire
TTITLE22=Tom Astor and Dave Dudley - Im Stau
TTITLE23=Tom Astor and The Stars of the Grand Ole Opry - Take me home country roa
TTITLE23=ds
EXTD=
EXTT0=
EXTT1=
EXTT2=
EXTT3=
EXTT4=
EXTT5=
EXTT6=
EXTT7=
EXTT8=
EXTT9=
EXTT10=
EXTT11=
EXTT12=
EXTT13=
EXTT14=
EXTT15=
EXTT16=
EXTT17=
EXTT18=
EXTT19=
EXTT20=
EXTT21=
EXTT22=
EXTT23=
PLAYORDER=
